<svg width="48" height="48" viewBox="0 0 48 48" fill="none" xmlns="http://www.w3.org/2000/svg">
<path d="M30.8871 37.0952C30.4163 37.0333 29.9827 36.9713 29.5491 36.9094C27.728 36.6616 25.9069 36.5625 24.0734 36.5625C22.2523 36.5625 20.4312 36.674 18.6224 36.9342C16.4049 37.2563 14.2369 37.7642 12.1432 38.5571C10.3469 39.2384 8.64967 40.0932 7.07633 41.1958C7.06394 41.1958 7.03916 41.2082 6.97722 41.2206C6.90289 40.8861 6.82856 40.5516 6.74184 40.2171C6.39496 38.8172 6.04808 37.4173 5.71359 36.0174C5.49059 35.1007 5.27999 34.1715 5.03222 33.2672C4.95789 33.007 5.00744 32.8831 5.23044 32.7345C6.19674 32.1026 7.22499 31.5823 8.27801 31.1116C9.82658 30.4302 11.4247 29.9099 13.0724 29.501C14.6209 29.1046 16.1943 28.8197 17.7924 28.6215C19.725 28.3861 21.6576 28.2746 23.6026 28.287C23.7017 28.287 23.838 28.3613 23.9 28.448C24.8043 29.6993 25.6591 30.9753 26.5883 32.1894C27.3316 33.1681 28.1492 34.0972 28.9545 35.0139C29.5615 35.7077 30.2181 36.3767 30.8871 37.0828V37.0952Z" fill="#B81C22"/>
<path d="M27.9882 15.7498C28.1121 16.0347 28.2236 16.2949 28.3474 16.555C28.6696 17.2736 28.9545 18.0045 29.3138 18.7106C29.958 19.9495 30.6145 21.176 31.3207 22.3776C31.8038 23.2077 32.3613 23.9882 32.9188 24.781C33.8851 26.1561 34.9505 27.4322 36.1151 28.6462C37.0566 29.6373 38.0724 30.5417 39.1502 31.3841C40.2528 32.2389 41.4173 32.9822 42.6438 33.6388C42.9907 33.8246 43.35 33.9857 43.734 34.1715C43.6968 34.2335 43.6721 34.283 43.6349 34.3202C42.7677 35.1626 41.9129 36.005 41.0457 36.8474C39.9927 37.8881 38.9273 38.9163 37.8742 39.957C37.7503 40.0809 37.6388 40.18 37.453 40.0561C36.6106 39.5605 35.7434 39.1022 34.9258 38.5695C33.7365 37.789 32.6463 36.8722 31.6056 35.9059C30.4287 34.8157 29.3138 33.676 28.3227 32.4124C27.4926 31.3717 26.675 30.3187 25.9069 29.2285C25.2751 28.3365 24.73 27.3826 24.1477 26.4535C24.1106 26.3791 24.0982 26.2553 24.1477 26.1809C24.6804 24.9668 25.2751 23.7899 25.7582 22.5511C26.3157 21.1264 26.7989 19.6646 27.282 18.2151C27.5546 17.4098 27.7652 16.5922 28.013 15.7374L27.9882 15.7498Z" fill="#002730"/>
<path d="M19.2295 6C19.5887 6.09911 19.8985 6.18583 20.2206 6.27255C21.7939 6.71853 23.3549 7.15213 24.9282 7.59812C25.6963 7.80873 26.4644 8.03172 27.2325 8.24232C27.3811 8.27949 27.4679 8.34143 27.4679 8.51487C27.4679 9.49357 27.505 10.4723 27.4431 11.451C27.3811 12.5907 27.2325 13.7304 26.9599 14.8454C26.6874 15.9728 26.4396 17.1001 26.1175 18.2151C25.845 19.1442 25.4981 20.061 25.1512 20.9777C24.5194 22.6378 23.7637 24.2607 22.9089 25.8217C22.723 26.1685 22.5372 26.5154 22.339 26.8499C22.2894 26.9242 22.1903 26.9986 22.1036 26.9986C20.9143 27.1225 19.725 27.2092 18.5481 27.3702C17.2101 27.556 15.8846 27.7914 14.559 28.0516C13.4936 28.2622 12.4406 28.5595 11.3875 28.8197C11.3132 28.8321 11.2389 28.8321 11.115 28.8568C11.2884 28.6215 11.4247 28.4356 11.5734 28.2498C12.7503 26.7632 13.7785 25.1774 14.7201 23.5298C15.5749 22.0432 16.3677 20.507 16.9872 18.9089C17.5075 17.5833 17.9535 16.2329 18.3623 14.8702C18.7339 13.6437 18.9941 12.3801 19.1056 11.0917C19.2047 9.97672 19.2543 8.86175 19.2914 7.73439C19.3038 7.26363 19.2419 6.79287 19.2171 6.3221C19.2171 6.23538 19.2171 6.13627 19.2171 6L19.2295 6Z" fill="#002730"/>
</svg>
