<svg width="89" height="29" viewBox="0 0 89 29" fill="none" xmlns="http://www.w3.org/2000/svg">
<g clip-path="url(#clip0_1_2)">
<path d="M20.9 25.1C20.52 25.05 20.17 25 19.82 24.95C18.35 24.75 16.88 24.67 15.4 24.67C13.93 24.67 12.46 24.76 11 24.97C9.21 25.23 7.46 25.64 5.77 26.28C4.32 26.83 2.95 27.52 1.68 28.41C1.67 28.41 1.65 28.42 1.6 28.43C1.54 28.16 1.48 27.89 1.41 27.62C1.13 26.49 0.85 25.36 0.58 24.23C0.4 23.49 0.23 22.74 0.03 22.01C-0.03 21.8 0.00999999 21.7 0.19 21.58C0.97 21.07 1.8 20.65 2.65 20.27C3.9 19.72 5.19 19.3 6.52 18.97C7.77 18.65 9.04 18.42 10.33 18.26C11.89 18.07 13.45 17.98 15.02 17.99C15.1 17.99 15.21 18.05 15.26 18.12C15.99 19.13 16.68 20.16 17.43 21.14C18.03 21.93 18.69 22.68 19.34 23.42C19.83 23.98 20.36 24.52 20.9 25.09V25.1Z" fill="#B81C22"/>
<path d="M18.56 7.87C18.66 8.1 18.75 8.31 18.85 8.52C19.11 9.1 19.34 9.69 19.63 10.26C20.15 11.26 20.68 12.25 21.25 13.22C21.64 13.89 22.09 14.52 22.54 15.16C23.32 16.27 24.18 17.3 25.12 18.28C25.88 19.08 26.7 19.81 27.57 20.49C28.46 21.18 29.4 21.78 30.39 22.31C30.67 22.46 30.96 22.59 31.27 22.74C31.24 22.79 31.22 22.83 31.19 22.86C30.49 23.54 29.8 24.22 29.1 24.9C28.25 25.74 27.39 26.57 26.54 27.41C26.44 27.51 26.35 27.59 26.2 27.49C25.52 27.09 24.82 26.72 24.16 26.29C23.2 25.66 22.32 24.92 21.48 24.14C20.53 23.26 19.63 22.34 18.83 21.32C18.16 20.48 17.5 19.63 16.88 18.75C16.37 18.03 15.93 17.26 15.46 16.51C15.43 16.45 15.42 16.35 15.46 16.29C15.89 15.31 16.37 14.36 16.76 13.36C17.21 12.21 17.6 11.03 17.99 9.86C18.21 9.21 18.38 8.55 18.58 7.86L18.56 7.87Z" fill="#002730"/>
<path d="M11.49 0C11.78 0.08 12.03 0.15 12.29 0.22C13.56 0.58 14.82 0.93 16.09 1.29C16.71 1.46 17.33 1.64 17.95 1.81C18.07 1.84 18.14 1.89 18.14 2.03C18.14 2.82 18.17 3.61 18.12 4.4C18.07 5.32 17.95 6.24 17.73 7.14C17.51 8.05 17.31 8.96 17.05 9.86C16.83 10.61 16.55 11.35 16.27 12.09C15.76 13.43 15.15 14.74 14.46 16C14.31 16.28 14.16 16.56 14 16.83C13.96 16.89 13.88 16.95 13.81 16.95C12.85 17.05 11.89 17.12 10.94 17.25C9.86 17.4 8.79 17.59 7.72 17.8C6.86 17.97 6.01 18.21 5.16 18.42C5.1 18.43 5.04 18.43 4.94 18.45C5.08 18.26 5.19 18.11 5.31 17.96C6.26 16.76 7.09 15.48 7.85 14.15C8.54 12.95 9.18 11.71 9.68 10.42C10.1 9.35 10.46 8.26 10.79 7.16C11.09 6.17 11.3 5.15 11.39 4.11C11.47 3.21 11.51 2.31 11.54 1.4C11.55 1.02 11.5 0.64 11.48 0.26C11.48 0.19 11.48 0.11 11.48 0L11.49 0Z" fill="#002730"/>
<path d="M35.34 25.33V24.45H45.31V25.33H35.34ZM35.95 17.77V16.76H44.7V17.77H35.95ZM36.43 21.41V20.4H44.26V21.41H36.43Z" fill="#002730"/>
<path d="M59.86 20.18C59.71 20.12 59.49 20.05 59.2 19.96C58.53 19.73 58.06 19.55 57.8 19.43V20.27H51.5V19.48C50.8 19.74 50.11 19.98 49.44 20.18V19.26C51.48 18.47 52.94 17.33 53.81 15.83H55.47C56.26 17.24 57.71 18.38 59.84 19.26V20.18H59.86ZM50.8 25.85V21.41H58.5V24.22C58.53 25.33 58.02 25.88 56.97 25.85H50.8ZM54.65 17.24C53.86 18.12 52.93 18.81 51.85 19.31H57.54C56.43 18.81 55.47 18.12 54.65 17.24ZM52.2 24.93H56.44C56.88 24.96 57.08 24.71 57.05 24.18V22.33H52.2V24.92V24.93Z" fill="#002730"/>
<path d="M63.96 25.85C64.46 24.71 64.79 23.26 64.97 21.5H66.02C65.93 23.23 65.68 24.68 65.28 25.85H63.97H63.96ZM64.7 18.29C64.58 17.62 64.39 16.9 64.13 16.14H65.27C65.53 16.78 65.75 17.5 65.93 18.29H64.7ZM64.83 20.93C64.71 20.23 64.51 19.51 64.22 18.78H65.4C65.72 19.69 65.93 20.41 66.01 20.93H64.83ZM66.27 21.24V20.45C67.03 19.95 67.49 19.1 67.67 17.9H68.89C68.72 18.72 68.48 19.37 68.19 19.83V26.03H67.01V20.89C66.78 21.04 66.53 21.15 66.27 21.24ZM66.54 17.55V16.67H69.56V15.92H71.05V16.67H74.02V17.55H66.54ZM74.06 26.07C72.89 25.6 71.95 25.12 71.22 24.62C70.52 25.09 69.63 25.57 68.55 26.07V25.15C69.34 24.83 69.99 24.42 70.52 23.92C69.94 23.3 69.44 22.4 69.03 21.19C69 21.22 68.93 21.26 68.81 21.32C68.72 21.38 68.65 21.42 68.59 21.45V20.61C69.26 20.05 69.7 19.16 69.9 17.93H71.12C71.09 18.05 71.06 18.21 71.03 18.41C70.97 18.56 70.94 18.67 70.94 18.76H73.7V19.6C73.44 21.51 72.85 22.94 71.95 23.91C72.47 24.41 73.17 24.82 74.05 25.14V26.06L74.06 26.07ZM72.48 19.61H70.56C70.33 20.08 69.99 20.49 69.55 20.84H70.12C70.41 21.78 70.78 22.55 71.21 23.17C71.91 22.35 72.33 21.16 72.48 19.61ZM71 21.72C70.94 21.4 70.8 20.91 70.56 20.27C70.56 20.3 70.54 20.27 70.52 20.18H71.44C71.67 20.68 71.85 21.19 71.97 21.72H71.01H71Z" fill="#002730"/>
<path d="M78.29 26.12V25.07C78.9 24.4 79.19 23.21 79.17 21.51V16.54H88.31V17.55H80.66V20.72C80.78 23.42 79.99 25.22 78.3 26.13L78.29 26.12ZM81.22 21.06V20.09H83.71V18.2H85.11V20.09H88V21.06H85.11V24.66H88.35V25.54H80.74V24.66H83.71V21.06H81.22ZM86.6 23.92C86.45 23.13 86.28 22.43 86.08 21.81H87.17C87.46 22.57 87.67 23.28 87.78 23.92H86.6Z" fill="#002730"/>
<path d="M43.36 3.25V6.23C42.82 5.74 42.3 5.41 41.81 5.25C41.2 5.05 40.59 4.94 39.99 4.94C38.95 4.94 38.44 5.21 38.44 5.74C38.44 6.1 38.74 6.35 39.35 6.49C40.42 6.74 41.21 6.96 41.73 7.14C43.13 7.64 43.82 8.55 43.82 9.88C43.82 10.53 43.62 11.13 43.23 11.67C42.84 12.21 42.31 12.61 41.64 12.88C40.97 13.15 40.27 13.28 39.53 13.28C38.16 13.28 36.9 12.94 35.74 12.26V9.54C36.3 10.04 36.83 10.38 37.33 10.57C37.98 10.81 38.64 10.94 39.32 10.94C40.32 10.94 40.82 10.66 40.82 10.11C40.82 9.79 40.59 9.54 40.13 9.35C40.02 9.3 39.64 9.2 38.98 9.04C37.6 8.71 36.66 8.3 36.16 7.82C35.58 7.27 35.29 6.58 35.29 5.75C35.29 4.63 35.78 3.75 36.75 3.09C37.54 2.56 38.55 2.29 39.78 2.29C41.01 2.29 42.22 2.6 43.35 3.23L43.36 3.25Z" fill="#002730"/>
<path d="M47.96 10.76L47.23 13.02H44.12L47.56 2.57H52.26L55.68 13.02H52.47L51.76 10.76H47.97H47.96ZM51.11 8.33L49.85 4.4L48.6 8.33H51.11Z" fill="#002730"/>
<path d="M71.88 6.24H75.37V2.57H78.53V13.02H75.37V9.02H71.88V13.02H68.72V2.57H71.88V6.24Z" fill="#002730"/>
<path d="M80.31 2.57H88.39V5.18H83.3V6.64H88.33V9.07H83.3V10.58H88.39V13.01H80.31V2.57Z" fill="#002730"/>
<path d="M62.64 5.82L61.09 2.57H56.77V13.02H59.76V9.28C59.76 7.98 59.67 6.61 59.48 5.16H59.58C60.07 6.7 60.58 7.96 61.09 8.95L63.22 13.02H64.35V10.44C64.35 10.44 63.25 7.08 62.65 5.82H62.64Z" fill="#002730"/>
<path d="M67.34 2.57H64.35V5.52C64.35 6.67 64.48 8.31 64.75 10.44V13.02H67.34V2.57Z" fill="#B81C22"/>
</g>
<defs>
<clipPath id="clip0_1_2">
<rect width="88.39" height="28.43" fill="white"/>
</clipPath>
</defs>
</svg>
